<svg width="95" height="26" viewBox="0 0 95 26" fill="none" xmlns="http://www.w3.org/2000/svg">
<path d="M2.988 25L6.228 17.908H19.476L22.716 25H25.596L14.652 0.879999H11.088L0.18 25H2.988ZM11.412 6.46L12.708 3.328H12.924L14.256 6.46L18.432 15.604H7.272L11.412 6.46ZM37.7575 25L46.2535 7.216H43.4815L36.3175 22.48H36.1015L28.9015 7.216H26.1295L34.6255 25H37.7575ZM51.3332 4.948V0.879999H48.7772V4.948H51.3332ZM51.3332 25V7.216H48.7772V25H51.3332ZM64.3447 25.36C70.1767 25.36 74.0287 21.508 74.0287 16.108C74.0287 10.708 70.1767 6.856 64.3447 6.856C58.5487 6.856 54.6967 10.708 54.6967 16.108C54.6967 21.508 58.5487 25.36 64.3447 25.36ZM64.3447 23.056C59.4487 23.056 57.2167 20.428 57.2167 16.108C57.2167 11.824 59.4487 9.16 64.3447 9.16C69.2407 9.16 71.5087 11.824 71.5087 16.108C71.5087 20.428 69.2407 23.056 64.3447 23.056ZM79.9855 25V16.396C79.9855 11.824 82.2535 9.196 86.5735 9.196C90.6415 9.196 92.4055 11.32 92.4055 14.992V25H94.9615V14.632C94.9615 10.42 92.4775 6.856 87.4735 6.856C83.0455 6.856 80.5255 9.772 79.9135 12.796H79.7335V7.216H77.4295V25H79.9855Z" fill="white"/>
</svg>
